<svg xmlns="http://www.w3.org/2000/svg" width="200" height="218" viewBox="0 0 278.362 303.372">
  <g id="Group_29" data-name="Group 29" transform="translate(-875.836 -658.156)">
    <g id="Group_21" data-name="Group 21" transform="translate(-16)">
      <g id="Group_7" data-name="Group 7" transform="translate(892.036 657.512)" opacity="0.905">
        <path id="Path_1" data-name="Path 1" d="M292.731,1490.387l31.412,214.545H461.12l25.117-214.545Z" transform="translate(-284 -1423.916)" fill="#f4f4f4"/>
        <path id="Path_3" data-name="Path 3" d="M307.247,1602.368l20.861,144.217H457.8l16.257-144.217Z" transform="translate(-283.813 -1471)" fill="rgba(237,201,132,0.71)"/>
        <g id="Group_2" data-name="Group 2" transform="translate(38 222)">
          <circle id="Ellipse_21" data-name="Ellipse 21" cx="11" cy="11" r="11" transform="translate(68)" fill="rgba(93,91,91,0.87)"/>
          <g id="Group_1" data-name="Group 1" transform="translate(0 3)">
            <circle id="Ellipse_8" data-name="Ellipse 8" cx="11" cy="11" r="11" transform="translate(22)" fill="rgba(93,91,91,0.87)"/>
            <circle id="Ellipse_9" data-name="Ellipse 9" cx="11" cy="11" r="11" transform="translate(59 11)" fill="rgba(93,91,91,0.87)"/>
            <circle id="Ellipse_10" data-name="Ellipse 10" cx="11" cy="11" r="11" transform="translate(77 27)" fill="rgba(93,91,91,0.87)"/>
            <circle id="Ellipse_11" data-name="Ellipse 11" cx="11" cy="11" r="11" transform="translate(52 22)" fill="rgba(93,91,91,0.87)"/>
            <circle id="Ellipse_12" data-name="Ellipse 12" cx="11" cy="11" r="11" transform="translate(37 5)" fill="rgba(93,91,91,0.87)"/>
            <circle id="Ellipse_13" data-name="Ellipse 13" cx="11" cy="11" r="11" transform="translate(33 27)" fill="rgba(93,91,91,0.87)"/>
            <circle id="Ellipse_14" data-name="Ellipse 14" cx="11" cy="11" r="11" transform="translate(0 11)" fill="rgba(93,91,91,0.87)"/>
            <circle id="Ellipse_15" data-name="Ellipse 15" cx="11" cy="11" r="11" transform="translate(15 19)" fill="rgba(93,91,91,0.87)"/>
            <circle id="Ellipse_16" data-name="Ellipse 16" cx="11" cy="11" r="11" transform="translate(4 27)" fill="rgba(93,91,91,0.87)"/>
            <circle id="Ellipse_17" data-name="Ellipse 17" cx="11" cy="11" r="11" transform="translate(94 22)" fill="rgba(93,91,91,0.87)"/>
            <circle id="Ellipse_18" data-name="Ellipse 18" cx="11" cy="11" r="11" transform="translate(83 11)" fill="rgba(93,91,91,0.87)"/>
            <circle id="Ellipse_19" data-name="Ellipse 19" cx="11" cy="11" r="11" transform="translate(116 27)" fill="rgba(93,91,91,0.87)"/>
            <circle id="Ellipse_20" data-name="Ellipse 20" cx="11" cy="11" r="11" transform="translate(110 11)" fill="rgba(93,91,91,0.87)"/>
            <circle id="Ellipse_22" data-name="Ellipse 22" cx="11" cy="11" r="11" transform="translate(66 27)" fill="rgba(93,91,91,0.87)"/>
          </g>
        </g>
        <g id="Group_3" data-name="Group 3" transform="matrix(0.978, -0.208, 0.208, 0.978, 72.67, 4.513)">
          <rect id="Rectangle_8" data-name="Rectangle 8" width="18.609" height="236" rx="6" fill="#ce6363"/>
          <ellipse id="Ellipse_23" data-name="Ellipse 23" cx="9.305" cy="4" rx="9.305" ry="4" fill="#c64a4a"/>
        </g>
        <path id="Path_2" data-name="Path 2" d="M1.7.42,207.2.381c2.761,0,1.8,1.539,1.8,3.909s-2.239,4.291-5,4.291H5c-2.761,0-5-1.921-5-4.291S-1.061.42,1.7.42Z" transform="translate(0 62.419)" fill="#d9d9d9"/>
      </g>
    </g>
    <g id="Group_24" data-name="Group 24" transform="translate(53 23)">
      <g id="Group_7-2" data-name="Group 7" transform="translate(892.036 657.512)" opacity="0.905">
        <path id="Path_1-2" data-name="Path 1" d="M292.731,1490.387l31.412,214.545H461.12l25.117-214.545Z" transform="translate(-284 -1423.916)" fill="#f4f4f4"/>
        <path id="Path_3-2" data-name="Path 3" d="M307.247,1602.368,328,1746.585H457.033l16.175-144.217Z" transform="translate(-284.163 -1471)" fill="rgba(237,201,132,0.71)"/>
        <g id="Group_2-2" data-name="Group 2" transform="translate(38 222)">
          <circle id="Ellipse_21-2" data-name="Ellipse 21" cx="11" cy="11" r="11" transform="translate(68)" fill="rgba(93,91,91,0.87)"/>
          <g id="Group_1-2" data-name="Group 1" transform="translate(0 3)">
            <circle id="Ellipse_8-2" data-name="Ellipse 8" cx="11" cy="11" r="11" transform="translate(22)" fill="rgba(93,91,91,0.87)"/>
            <circle id="Ellipse_9-2" data-name="Ellipse 9" cx="11" cy="11" r="11" transform="translate(59 11)" fill="rgba(93,91,91,0.87)"/>
            <circle id="Ellipse_10-2" data-name="Ellipse 10" cx="11" cy="11" r="11" transform="translate(77 27)" fill="rgba(93,91,91,0.87)"/>
            <circle id="Ellipse_11-2" data-name="Ellipse 11" cx="11" cy="11" r="11" transform="translate(52 22)" fill="rgba(93,91,91,0.87)"/>
            <circle id="Ellipse_12-2" data-name="Ellipse 12" cx="11" cy="11" r="11" transform="translate(37 5)" fill="rgba(93,91,91,0.87)"/>
            <circle id="Ellipse_13-2" data-name="Ellipse 13" cx="11" cy="11" r="11" transform="translate(33 27)" fill="rgba(93,91,91,0.87)"/>
            <circle id="Ellipse_14-2" data-name="Ellipse 14" cx="11" cy="11" r="11" transform="translate(0 11)" fill="rgba(93,91,91,0.87)"/>
            <circle id="Ellipse_15-2" data-name="Ellipse 15" cx="11" cy="11" r="11" transform="translate(15 19)" fill="rgba(93,91,91,0.87)"/>
            <circle id="Ellipse_16-2" data-name="Ellipse 16" cx="11" cy="11" r="11" transform="translate(4 27)" fill="rgba(93,91,91,0.87)"/>
            <circle id="Ellipse_17-2" data-name="Ellipse 17" cx="11" cy="11" r="11" transform="translate(94 22)" fill="rgba(93,91,91,0.87)"/>
            <circle id="Ellipse_18-2" data-name="Ellipse 18" cx="11" cy="11" r="11" transform="translate(83 11)" fill="rgba(93,91,91,0.87)"/>
            <circle id="Ellipse_19-2" data-name="Ellipse 19" cx="11" cy="11" r="11" transform="translate(116 27)" fill="rgba(93,91,91,0.87)"/>
            <circle id="Ellipse_20-2" data-name="Ellipse 20" cx="11" cy="11" r="11" transform="translate(110 11)" fill="rgba(93,91,91,0.87)"/>
            <circle id="Ellipse_22-2" data-name="Ellipse 22" cx="11" cy="11" r="11" transform="translate(66 27)" fill="rgba(93,91,91,0.87)"/>
          </g>
        </g>
        <g id="Group_3-2" data-name="Group 3" transform="translate(103.188 -0.325) rotate(3)">
          <rect id="Rectangle_8-2" data-name="Rectangle 8" width="18.609" height="236" rx="6" fill="#ce6363"/>
          <ellipse id="Ellipse_23-2" data-name="Ellipse 23" cx="9.305" cy="4" rx="9.305" ry="4" fill="#c64a4a"/>
        </g>
        <path id="Path_2-2" data-name="Path 2" d="M1.7.42,207.2.381c2.761,0,1.8,1.539,1.8,3.909s-2.239,4.291-5,4.291H5c-2.761,0-5-1.921-5-4.291S-1.061.42,1.7.42Z" transform="translate(0 62.419)" fill="#d9d9d9"/>
      </g>
    </g>
    <rect id="Rectangle_16" data-name="Rectangle 16" width="9" height="115" rx="4.5" transform="translate(911.757 811.416) rotate(-8)" fill="#f4f4f4" opacity="0.222"/>
  </g>
</svg>
