<svg xmlns="http://www.w3.org/2000/svg" xmlns:xlink="http://www.w3.org/1999/xlink" width="290" height="181.6" viewBox="0 0 412.972 258.613">
  <defs>
    <clipPath id="clip-path">
      <rect width="299.189" height="5.959" fill="none"/>
    </clipPath>
    <clipPath id="clip-path-2">
      <rect width="109.295" height="6.959" fill="none"/>
    </clipPath>
    <clipPath id="clip-path-3">
      <rect width="110.295" height="6.959" fill="none"/>
    </clipPath>
    <clipPath id="clip-path-4">
      <rect width="280.189" height="5.959" fill="none"/>
    </clipPath>
  </defs>
  <g id="Group_28" data-name="Group 28" transform="translate(-1280.56 -420.154)">
    <g id="Group_20" data-name="Group 20">
      <path id="Path_8" data-name="Path 8" d="M8.766,0H314.709a8.708,8.708,0,0,1,8.766,8.65v173.5a8.708,8.708,0,0,1-8.766,8.65H8.766A8.708,8.708,0,0,1,0,182.149V8.65A8.708,8.708,0,0,1,8.766,0Z" transform="translate(1326.262 420.154)" fill="#36434e"/>
      <rect id="Rectangle_13" data-name="Rectangle 13" width="293.718" height="158.202" rx="5" transform="translate(1340.541 437.907)" fill="#475764"/>
      <ellipse id="Ellipse_26" data-name="Ellipse 26" cx="1.747" cy="1.747" rx="1.747" ry="1.747" transform="translate(1485.189 428.775)" fill="#646769"/>
      <path id="Path_12" data-name="Path 12" d="M3263.281,1852.091l46.385-61.152h322.768l30.285,42.264,13.534,18.888Z" transform="translate(-1982.721 -1181)" fill="#e4e7e7"/>
      <path id="Path_10" data-name="Path 10" d="M3419.5,1845.367l14.84-19.556h79.42l17.089,19.556Z" transform="translate(-1983 -1183)" fill="#ccd0d2"/>
      <path id="Path_11" data-name="Path 11" d="M3306.5,1821.5l19.514-24.356h298.612l16.49,24.356Z" transform="translate(-1987 -1182)" fill="none"/>
      <path id="Path_13" data-name="Path 13" d="M3261.554,1860.5v-9.25h179.427l4.486,4.9h53.17l3.924-4.9h169.819v9.518Z" transform="translate(-1979.849 -1182)" fill="#ccd0d2"/>
      <path id="Path_14" data-name="Path 14" d="M3445.31,1851.249h62.182l-3.761,5.684h-53.853Z" transform="translate(-1984.657 -1182)" fill="#b7bbbd"/>
      <g id="Group_19" data-name="Group 19" transform="translate(4.106 9.7)">
        <g id="Repeat_Grid_1" data-name="Repeat Grid 1" transform="translate(1332.685 606.444)" clip-path="url(#clip-path)">
          <g transform="translate(-1333.685 -606.444)">
            <path id="Path_15" data-name="Path 15" d="M3323.624,1803.982l2.313-5.038h8.6l-2.457,5.038Z" transform="translate(-1990.53 -1191.87)" fill="#646769"/>
          </g>
          <g transform="translate(-1323.685 -606.444)">
            <path id="Path_15-2" data-name="Path 15" d="M3323.624,1803.982l2.313-5.038h8.6l-2.457,5.038Z" transform="translate(-1990.53 -1191.87)" fill="#646769"/>
          </g>
          <g transform="translate(-1313.685 -606.444)">
            <path id="Path_15-3" data-name="Path 15" d="M3323.624,1803.982l2.313-5.038h8.6l-2.457,5.038Z" transform="translate(-1990.53 -1191.87)" fill="#646769"/>
          </g>
          <g transform="translate(-1303.685 -606.444)">
            <path id="Path_15-4" data-name="Path 15" d="M3323.624,1803.982l2.313-5.038h8.6l-2.457,5.038Z" transform="translate(-1990.53 -1191.87)" fill="#646769"/>
          </g>
          <g transform="translate(-1293.685 -606.444)">
            <path id="Path_15-5" data-name="Path 15" d="M3323.624,1803.982l2.313-5.038h8.6l-2.457,5.038Z" transform="translate(-1990.53 -1191.87)" fill="#646769"/>
          </g>
          <g transform="translate(-1283.685 -606.444)">
            <path id="Path_15-6" data-name="Path 15" d="M3323.624,1803.982l2.313-5.038h8.6l-2.457,5.038Z" transform="translate(-1990.53 -1191.87)" fill="#646769"/>
          </g>
          <g transform="translate(-1273.685 -606.444)">
            <path id="Path_15-7" data-name="Path 15" d="M3323.624,1803.982l2.313-5.038h8.6l-2.457,5.038Z" transform="translate(-1990.53 -1191.87)" fill="#646769"/>
          </g>
          <g transform="translate(-1263.685 -606.444)">
            <path id="Path_15-8" data-name="Path 15" d="M3323.624,1803.982l2.313-5.038h8.6l-2.457,5.038Z" transform="translate(-1990.53 -1191.87)" fill="#646769"/>
          </g>
          <g transform="translate(-1253.685 -606.444)">
            <path id="Path_15-9" data-name="Path 15" d="M3323.624,1803.982l2.313-5.038h8.6l-2.457,5.038Z" transform="translate(-1990.53 -1191.87)" fill="#646769"/>
          </g>
          <g transform="translate(-1243.685 -606.444)">
            <path id="Path_15-10" data-name="Path 15" d="M3323.624,1803.982l2.313-5.038h8.6l-2.457,5.038Z" transform="translate(-1990.53 -1191.87)" fill="#646769"/>
          </g>
          <g transform="translate(-1233.685 -606.444)">
            <path id="Path_15-11" data-name="Path 15" d="M3323.624,1803.982l2.313-5.038h8.6l-2.457,5.038Z" transform="translate(-1990.53 -1191.87)" fill="#646769"/>
          </g>
          <g transform="translate(-1223.685 -606.444)">
            <path id="Path_15-12" data-name="Path 15" d="M3323.624,1803.982l2.313-5.038h8.6l-2.457,5.038Z" transform="translate(-1990.53 -1191.87)" fill="#646769"/>
          </g>
          <g transform="translate(-1213.685 -606.444)">
            <path id="Path_15-13" data-name="Path 15" d="M3323.624,1803.982l2.313-5.038h8.6l-2.457,5.038Z" transform="translate(-1990.53 -1191.87)" fill="#646769"/>
          </g>
          <g transform="translate(-1203.685 -606.444)">
            <path id="Path_15-14" data-name="Path 15" d="M3323.624,1803.982l2.313-5.038h8.6l-2.457,5.038Z" transform="translate(-1990.53 -1191.87)" fill="#646769"/>
          </g>
          <g transform="translate(-1193.685 -606.444)">
            <path id="Path_15-15" data-name="Path 15" d="M3323.624,1803.982l2.313-5.038h8.6l-2.457,5.038Z" transform="translate(-1990.53 -1191.87)" fill="#646769"/>
          </g>
          <g transform="translate(-1183.685 -606.444)">
            <path id="Path_15-16" data-name="Path 15" d="M3323.624,1803.982l2.313-5.038h8.6l-2.457,5.038Z" transform="translate(-1990.53 -1191.87)" fill="#646769"/>
          </g>
          <g transform="translate(-1173.685 -606.444)">
            <path id="Path_15-17" data-name="Path 15" d="M3323.624,1803.982l2.313-5.038h8.6l-2.457,5.038Z" transform="translate(-1990.53 -1191.87)" fill="#646769"/>
          </g>
          <g transform="translate(-1163.685 -606.444)">
            <path id="Path_15-18" data-name="Path 15" d="M3323.624,1803.982l2.313-5.038h8.6l-2.457,5.038Z" transform="translate(-1990.53 -1191.87)" fill="#646769"/>
          </g>
          <g transform="translate(-1153.685 -606.444)">
            <path id="Path_15-19" data-name="Path 15" d="M3323.624,1803.982l2.313-5.038h8.6l-2.457,5.038Z" transform="translate(-1990.53 -1191.87)" fill="#646769"/>
          </g>
          <g transform="translate(-1143.685 -606.444)">
            <path id="Path_15-20" data-name="Path 15" d="M3323.624,1803.982l2.313-5.038h8.6l-2.457,5.038Z" transform="translate(-1990.53 -1191.87)" fill="#646769"/>
          </g>
          <g transform="translate(-1133.685 -606.444)">
            <path id="Path_15-21" data-name="Path 15" d="M3323.624,1803.982l2.313-5.038h8.6l-2.457,5.038Z" transform="translate(-1990.53 -1191.87)" fill="#646769"/>
          </g>
          <g transform="translate(-1123.685 -606.444)">
            <path id="Path_15-22" data-name="Path 15" d="M3323.624,1803.982l2.313-5.038h8.6l-2.457,5.038Z" transform="translate(-1990.53 -1191.87)" fill="#646769"/>
          </g>
          <g transform="translate(-1113.685 -606.444)">
            <path id="Path_15-23" data-name="Path 15" d="M3323.624,1803.982l2.313-5.038h8.6l-2.457,5.038Z" transform="translate(-1990.53 -1191.87)" fill="#646769"/>
          </g>
          <g transform="translate(-1103.685 -606.444)">
            <path id="Path_15-24" data-name="Path 15" d="M3323.624,1803.982l2.313-5.038h8.6l-2.457,5.038Z" transform="translate(-1990.53 -1191.87)" fill="#646769"/>
          </g>
          <g transform="translate(-1093.685 -606.444)">
            <path id="Path_15-25" data-name="Path 15" d="M3323.624,1803.982l2.313-5.038h8.6l-2.457,5.038Z" transform="translate(-1990.53 -1191.87)" fill="#646769"/>
          </g>
          <g transform="translate(-1083.685 -606.444)">
            <path id="Path_15-26" data-name="Path 15" d="M3323.624,1803.982l2.313-5.038h8.6l-2.457,5.038Z" transform="translate(-1990.53 -1191.87)" fill="#646769"/>
          </g>
          <g transform="translate(-1073.685 -606.444)">
            <path id="Path_15-27" data-name="Path 15" d="M3323.624,1803.982l2.313-5.038h8.6l-2.457,5.038Z" transform="translate(-1990.53 -1191.87)" fill="#646769"/>
          </g>
          <g transform="translate(-1063.685 -606.444)">
            <path id="Path_15-28" data-name="Path 15" d="M3323.624,1803.982l2.313-5.038h8.6l-2.457,5.038Z" transform="translate(-1990.53 -1191.87)" fill="#646769"/>
          </g>
          <g transform="translate(-1053.685 -606.444)">
            <path id="Path_15-29" data-name="Path 15" d="M3323.624,1803.982l2.313-5.038h8.6l-2.457,5.038Z" transform="translate(-1990.53 -1191.87)" fill="#646769"/>
          </g>
          <g transform="translate(-1043.685 -606.444)">
            <path id="Path_15-30" data-name="Path 15" d="M3323.624,1803.982l2.313-5.038h8.6l-2.457,5.038Z" transform="translate(-1990.53 -1191.87)" fill="#646769"/>
          </g>
        </g>
        <g id="Repeat_Grid_2" data-name="Repeat Grid 2" transform="translate(1332.685 621.743)" clip-path="url(#clip-path-2)">
          <g transform="translate(-1333.685 -606.444)">
            <path id="Path_15-31" data-name="Path 15" d="M3323.624,1803.982l2.313-5.038h8.6l-2.457,5.038Z" transform="translate(-1990.53 -1191.87)" fill="#646769"/>
          </g>
          <g transform="translate(-1323.685 -606.444)">
            <path id="Path_15-32" data-name="Path 15" d="M3323.624,1803.982l2.313-5.038h8.6l-2.457,5.038Z" transform="translate(-1990.53 -1191.87)" fill="#646769"/>
          </g>
          <g transform="translate(-1313.685 -606.444)">
            <path id="Path_15-33" data-name="Path 15" d="M3323.624,1803.982l2.313-5.038h8.6l-2.457,5.038Z" transform="translate(-1990.53 -1191.87)" fill="#646769"/>
          </g>
          <g transform="translate(-1303.685 -606.444)">
            <path id="Path_15-34" data-name="Path 15" d="M3323.624,1803.982l2.313-5.038h8.6l-2.457,5.038Z" transform="translate(-1990.53 -1191.87)" fill="#646769"/>
          </g>
          <g transform="translate(-1293.685 -606.444)">
            <path id="Path_15-35" data-name="Path 15" d="M3323.624,1803.982l2.313-5.038h8.6l-2.457,5.038Z" transform="translate(-1990.53 -1191.87)" fill="#646769"/>
          </g>
          <g transform="translate(-1283.685 -606.444)">
            <path id="Path_15-36" data-name="Path 15" d="M3323.624,1803.982l2.313-5.038h8.6l-2.457,5.038Z" transform="translate(-1990.53 -1191.87)" fill="#646769"/>
          </g>
          <g transform="translate(-1273.685 -606.444)">
            <path id="Path_15-37" data-name="Path 15" d="M3323.624,1803.982l2.313-5.038h8.6l-2.457,5.038Z" transform="translate(-1990.53 -1191.87)" fill="#646769"/>
          </g>
          <g transform="translate(-1263.685 -606.444)">
            <path id="Path_15-38" data-name="Path 15" d="M3323.624,1803.982l2.313-5.038h8.6l-2.457,5.038Z" transform="translate(-1990.53 -1191.87)" fill="#646769"/>
          </g>
          <g transform="translate(-1253.685 -606.444)">
            <path id="Path_15-39" data-name="Path 15" d="M3323.624,1803.982l2.313-5.038h8.6l-2.457,5.038Z" transform="translate(-1990.53 -1191.87)" fill="#646769"/>
          </g>
          <g transform="translate(-1243.685 -606.444)">
            <path id="Path_15-40" data-name="Path 15" d="M3323.624,1803.982l2.313-5.038h8.6l-2.457,5.038Z" transform="translate(-1990.53 -1191.87)" fill="#646769"/>
          </g>
          <g transform="translate(-1233.685 -606.444)">
            <path id="Path_15-41" data-name="Path 15" d="M3323.624,1803.982l2.313-5.038h8.6l-2.457,5.038Z" transform="translate(-1990.53 -1191.87)" fill="#646769"/>
          </g>
        </g>
        <g id="Repeat_Grid_3" data-name="Repeat Grid 3" transform="translate(1525.579 621.743)" clip-path="url(#clip-path-3)">
          <g transform="translate(-1333.685 -606.444)">
            <path id="Path_15-42" data-name="Path 15" d="M3323.624,1803.982l2.313-5.038h8.6l-2.457,5.038Z" transform="translate(-1990.53 -1191.87)" fill="#646769"/>
          </g>
          <g transform="translate(-1323.685 -606.444)">
            <path id="Path_15-43" data-name="Path 15" d="M3323.624,1803.982l2.313-5.038h8.6l-2.457,5.038Z" transform="translate(-1990.53 -1191.87)" fill="#646769"/>
          </g>
          <g transform="translate(-1313.685 -606.444)">
            <path id="Path_15-44" data-name="Path 15" d="M3323.624,1803.982l2.313-5.038h8.6l-2.457,5.038Z" transform="translate(-1990.53 -1191.87)" fill="#646769"/>
          </g>
          <g transform="translate(-1303.685 -606.444)">
            <path id="Path_15-45" data-name="Path 15" d="M3323.624,1803.982l2.313-5.038h8.6l-2.457,5.038Z" transform="translate(-1990.53 -1191.87)" fill="#646769"/>
          </g>
          <g transform="translate(-1293.685 -606.444)">
            <path id="Path_15-46" data-name="Path 15" d="M3323.624,1803.982l2.313-5.038h8.6l-2.457,5.038Z" transform="translate(-1990.53 -1191.87)" fill="#646769"/>
          </g>
          <g transform="translate(-1283.685 -606.444)">
            <path id="Path_15-47" data-name="Path 15" d="M3323.624,1803.982l2.313-5.038h8.6l-2.457,5.038Z" transform="translate(-1990.53 -1191.87)" fill="#646769"/>
          </g>
          <g transform="translate(-1273.685 -606.444)">
            <path id="Path_15-48" data-name="Path 15" d="M3323.624,1803.982l2.313-5.038h8.6l-2.457,5.038Z" transform="translate(-1990.53 -1191.87)" fill="#646769"/>
          </g>
          <g transform="translate(-1263.685 -606.444)">
            <path id="Path_15-49" data-name="Path 15" d="M3323.624,1803.982l2.313-5.038h8.6l-2.457,5.038Z" transform="translate(-1990.53 -1191.87)" fill="#646769"/>
          </g>
          <g transform="translate(-1253.685 -606.444)">
            <path id="Path_15-50" data-name="Path 15" d="M3323.624,1803.982l2.313-5.038h8.6l-2.457,5.038Z" transform="translate(-1990.53 -1191.87)" fill="#646769"/>
          </g>
          <g transform="translate(-1243.685 -606.444)">
            <path id="Path_15-51" data-name="Path 15" d="M3323.624,1803.982l2.313-5.038h8.6l-2.457,5.038Z" transform="translate(-1990.53 -1191.87)" fill="#646769"/>
          </g>
          <g transform="translate(-1233.685 -606.444)">
            <path id="Path_15-52" data-name="Path 15" d="M3323.624,1803.982l2.313-5.038h8.6l-2.457,5.038Z" transform="translate(-1990.53 -1191.87)" fill="#646769"/>
          </g>
          <g transform="translate(-1223.685 -606.444)">
            <path id="Path_15-53" data-name="Path 15" d="M3323.624,1803.982l2.313-5.038h8.6l-2.457,5.038Z" transform="translate(-1990.53 -1191.87)" fill="#646769"/>
          </g>
        </g>
        <path id="Path_16" data-name="Path 16" d="M3477.98,1844.382l2.467-5.049h79.991l-2.239,5.049Z" transform="translate(-2034.859 -1216.923)" fill="#646769"/>
        <g id="Repeat_Grid_4" data-name="Repeat Grid 4" transform="translate(1332.685 614.05)" clip-path="url(#clip-path-4)">
          <g transform="translate(-1333.685 -606.444)">
            <path id="Path_15-54" data-name="Path 15" d="M3323.624,1803.982l2.313-5.038h8.6l-2.457,5.038Z" transform="translate(-1990.53 -1191.87)" fill="#646769"/>
          </g>
          <g transform="translate(-1323.685 -606.444)">
            <path id="Path_15-55" data-name="Path 15" d="M3323.624,1803.982l2.313-5.038h8.6l-2.457,5.038Z" transform="translate(-1990.53 -1191.87)" fill="#646769"/>
          </g>
          <g transform="translate(-1313.685 -606.444)">
            <path id="Path_15-56" data-name="Path 15" d="M3323.624,1803.982l2.313-5.038h8.6l-2.457,5.038Z" transform="translate(-1990.53 -1191.87)" fill="#646769"/>
          </g>
          <g transform="translate(-1303.685 -606.444)">
            <path id="Path_15-57" data-name="Path 15" d="M3323.624,1803.982l2.313-5.038h8.6l-2.457,5.038Z" transform="translate(-1990.53 -1191.87)" fill="#646769"/>
          </g>
          <g transform="translate(-1293.685 -606.444)">
            <path id="Path_15-58" data-name="Path 15" d="M3323.624,1803.982l2.313-5.038h8.6l-2.457,5.038Z" transform="translate(-1990.53 -1191.87)" fill="#646769"/>
          </g>
          <g transform="translate(-1283.685 -606.444)">
            <path id="Path_15-59" data-name="Path 15" d="M3323.624,1803.982l2.313-5.038h8.6l-2.457,5.038Z" transform="translate(-1990.53 -1191.87)" fill="#646769"/>
          </g>
          <g transform="translate(-1273.685 -606.444)">
            <path id="Path_15-60" data-name="Path 15" d="M3323.624,1803.982l2.313-5.038h8.6l-2.457,5.038Z" transform="translate(-1990.53 -1191.87)" fill="#646769"/>
          </g>
          <g transform="translate(-1263.685 -606.444)">
            <path id="Path_15-61" data-name="Path 15" d="M3323.624,1803.982l2.313-5.038h8.6l-2.457,5.038Z" transform="translate(-1990.53 -1191.87)" fill="#646769"/>
          </g>
          <g transform="translate(-1253.685 -606.444)">
            <path id="Path_15-62" data-name="Path 15" d="M3323.624,1803.982l2.313-5.038h8.6l-2.457,5.038Z" transform="translate(-1990.53 -1191.87)" fill="#646769"/>
          </g>
          <g transform="translate(-1243.685 -606.444)">
            <path id="Path_15-63" data-name="Path 15" d="M3323.624,1803.982l2.313-5.038h8.6l-2.457,5.038Z" transform="translate(-1990.53 -1191.87)" fill="#646769"/>
          </g>
          <g transform="translate(-1233.685 -606.444)">
            <path id="Path_15-64" data-name="Path 15" d="M3323.624,1803.982l2.313-5.038h8.6l-2.457,5.038Z" transform="translate(-1990.53 -1191.87)" fill="#646769"/>
          </g>
          <g transform="translate(-1223.685 -606.444)">
            <path id="Path_15-65" data-name="Path 15" d="M3323.624,1803.982l2.313-5.038h8.6l-2.457,5.038Z" transform="translate(-1990.53 -1191.87)" fill="#646769"/>
          </g>
          <g transform="translate(-1213.685 -606.444)">
            <path id="Path_15-66" data-name="Path 15" d="M3323.624,1803.982l2.313-5.038h8.6l-2.457,5.038Z" transform="translate(-1990.53 -1191.87)" fill="#646769"/>
          </g>
          <g transform="translate(-1203.685 -606.444)">
            <path id="Path_15-67" data-name="Path 15" d="M3323.624,1803.982l2.313-5.038h8.6l-2.457,5.038Z" transform="translate(-1990.53 -1191.87)" fill="#646769"/>
          </g>
          <g transform="translate(-1193.685 -606.444)">
            <path id="Path_15-68" data-name="Path 15" d="M3323.624,1803.982l2.313-5.038h8.6l-2.457,5.038Z" transform="translate(-1990.53 -1191.87)" fill="#646769"/>
          </g>
          <g transform="translate(-1183.685 -606.444)">
            <path id="Path_15-69" data-name="Path 15" d="M3323.624,1803.982l2.313-5.038h8.6l-2.457,5.038Z" transform="translate(-1990.53 -1191.87)" fill="#646769"/>
          </g>
          <g transform="translate(-1173.685 -606.444)">
            <path id="Path_15-70" data-name="Path 15" d="M3323.624,1803.982l2.313-5.038h8.6l-2.457,5.038Z" transform="translate(-1990.53 -1191.87)" fill="#646769"/>
          </g>
          <g transform="translate(-1163.685 -606.444)">
            <path id="Path_15-71" data-name="Path 15" d="M3323.624,1803.982l2.313-5.038h8.6l-2.457,5.038Z" transform="translate(-1990.53 -1191.87)" fill="#646769"/>
          </g>
          <g transform="translate(-1153.685 -606.444)">
            <path id="Path_15-72" data-name="Path 15" d="M3323.624,1803.982l2.313-5.038h8.6l-2.457,5.038Z" transform="translate(-1990.53 -1191.87)" fill="#646769"/>
          </g>
          <g transform="translate(-1143.685 -606.444)">
            <path id="Path_15-73" data-name="Path 15" d="M3323.624,1803.982l2.313-5.038h8.6l-2.457,5.038Z" transform="translate(-1990.53 -1191.87)" fill="#646769"/>
          </g>
          <g transform="translate(-1133.685 -606.444)">
            <path id="Path_15-74" data-name="Path 15" d="M3323.624,1803.982l2.313-5.038h8.6l-2.457,5.038Z" transform="translate(-1990.53 -1191.87)" fill="#646769"/>
          </g>
          <g transform="translate(-1123.685 -606.444)">
            <path id="Path_15-75" data-name="Path 15" d="M3323.624,1803.982l2.313-5.038h8.6l-2.457,5.038Z" transform="translate(-1990.53 -1191.87)" fill="#646769"/>
          </g>
          <g transform="translate(-1113.685 -606.444)">
            <path id="Path_15-76" data-name="Path 15" d="M3323.624,1803.982l2.313-5.038h8.6l-2.457,5.038Z" transform="translate(-1990.53 -1191.87)" fill="#646769"/>
          </g>
          <g transform="translate(-1103.685 -606.444)">
            <path id="Path_15-77" data-name="Path 15" d="M3323.624,1803.982l2.313-5.038h8.6l-2.457,5.038Z" transform="translate(-1990.53 -1191.87)" fill="#646769"/>
          </g>
          <g transform="translate(-1093.685 -606.444)">
            <path id="Path_15-78" data-name="Path 15" d="M3323.624,1803.982l2.313-5.038h8.6l-2.457,5.038Z" transform="translate(-1990.53 -1191.87)" fill="#646769"/>
          </g>
          <g transform="translate(-1083.685 -606.444)">
            <path id="Path_15-79" data-name="Path 15" d="M3323.624,1803.982l2.313-5.038h8.6l-2.457,5.038Z" transform="translate(-1990.53 -1191.87)" fill="#646769"/>
          </g>
          <g transform="translate(-1073.685 -606.444)">
            <path id="Path_15-80" data-name="Path 15" d="M3323.624,1803.982l2.313-5.038h8.6l-2.457,5.038Z" transform="translate(-1990.53 -1191.87)" fill="#646769"/>
          </g>
          <g transform="translate(-1063.685 -606.444)">
            <path id="Path_15-81" data-name="Path 15" d="M3323.624,1803.982l2.313-5.038h8.6l-2.457,5.038Z" transform="translate(-1990.53 -1191.87)" fill="#646769"/>
          </g>
          <g transform="translate(-1053.685 -606.444)">
            <path id="Path_15-82" data-name="Path 15" d="M3323.624,1803.982l2.313-5.038h8.6l-2.457,5.038Z" transform="translate(-1990.53 -1191.87)" fill="#646769"/>
          </g>
        </g>
      </g>
      <path id="Path_17" data-name="Path 17" d="M3647.98,1837.381l2.615-4.981h21.133l-2.665,4.981Z" transform="translate(-2031.748 -1207.98)" fill="#646769"/>
    </g>
    <line id="Line_1" data-name="Line 1" y1="16" x2="20" transform="translate(1360.5 461.5)" fill="none" stroke="#f7f7f7" stroke-linecap="round" stroke-width="5" opacity="0.101"/>
    <line id="Line_2" data-name="Line 2" y1="16" x2="20" transform="translate(1587.5 560.5)" fill="none" stroke="#f7f7f7" stroke-linecap="round" stroke-width="5" opacity="0.101"/>
    <line id="Line_3" data-name="Line 3" y1="24" x2="29" transform="translate(1377.5 461.5)" fill="none" stroke="#f7f7f7" stroke-linecap="round" stroke-width="5" opacity="0.101"/>
  </g>
</svg>
